<?xml version="1.0" encoding="utf-8"?>
<!-- Generator: Adobe Illustrator 22.0.1, SVG Export Plug-In . SVG Version: 6.00 Build 0)  -->
<svg version="1.1" id="Layer_1" xmlns="http://www.w3.org/2000/svg" xmlns:xlink="http://www.w3.org/1999/xlink" x="0px" y="0px"
	 viewBox="0 0 400 300" style="enable-background:new 0 0 400 300;" xml:space="preserve">
<style type="text/css">
	.st0{fill:#575757;}
	.st1{fill:#323A44;stroke:#FFFFFF;stroke-width:4.1358;stroke-miterlimit:10;}
	.st2{fill:#FFFFFF;stroke:#FFFFFF;stroke-width:4.1358;stroke-miterlimit:10;}
	.st3{fill:#FFFFFF;}
	.st4{fill:#323A44;}
</style>
<g>
	<path class="st0" d="M386.9,251.6c-6.2,0-12-3.7-12-3.7c-2.9-1.7-7-3.7-12.4-7c-8.7-5-20.3-11.2-33.9-19c7-2.5,16.1-5,24-5
		c2.5,0,4.5,0.4,6.6,0.8c1.2,0.4,5,1.2,9.9,2.5l1.2,0.4c5.4,1.7,9.1,2.5,12.8,4.5c1.2,0.4,2.1,1.2,2.5,1.7c2.1,1.2,4.1,2.9,6.2,5
		c1.2,1.2,3.7,3.7,5,7.9c1.2,3.3,1.2,7-0.8,9.5c-0.8,0.8-1.7,1.2-2.9,1.7C391.1,251.1,389,251.6,386.9,251.6L386.9,251.6z"/>
	<path class="st0" d="M352.6,218.9L352.6,218.9c2.1,0,4.1,0,6.2,0.4c1.2,0.4,5,1.2,9.9,2.5l1.2,0.4c5.4,1.7,8.7,2.5,12.4,4.5
		c0.8,0.4,2.1,1.2,2.1,1.2l0,0l0,0c1.7,1.2,3.7,2.5,5.8,4.5c1.2,1.2,3.3,3.3,4.5,7v0.4l0,0c0.8,2.5,0.8,5.4-0.4,7
		c-0.4,0.4-0.8,0.8-1.7,0.8c-2.1,0.4-3.7,0.8-5.4,0.8h-0.4c-5.8,0-11.2-3.3-11.2-3.3c-2.9-1.7-7-3.7-12.4-7
		c-7.9-4.5-17.8-9.9-29.8-17C339.4,220.5,346.4,218.9,352.6,218.9 M352.6,214.7c-11.2,0-23.2,4.1-29,6.6c24.4,14.1,42.6,24,50,28.1
		c0,0,6.2,3.7,13.2,4.1h0.4c2.1,0,4.1-0.4,6.6-0.8c1.7-0.4,2.9-1.2,3.7-2.1c2.9-2.9,2.5-7.9,1.2-11.2v-0.4c-1.7-4.1-4.1-7-5.4-8.3
		c-2.5-2.5-4.5-4.1-6.2-5c0,0-1.7-1.2-2.9-2.1c-4.1-2.1-8.3-3.3-14.5-5c-5-1.7-9.1-2.5-10.3-2.9
		C357.2,215.2,355.1,214.7,352.6,214.7L352.6,214.7z"/>
</g>
<g>
	<path class="st1" d="M197.5,276c-9.9,0-19-1.2-19-1.2c-4.1-0.4-8.3-1.2-12.8-2.5c-37.2-8.7-63.7-31.4-79.8-50.5
		c21.1-3.3,41.8-7.9,61.2-13.6c17.8-5.4,29.8-8.7,45.5-15.7c3.3-1.7,6.6-2.9,9.9-4.5c9.5-4.5,17.8-8.3,30.6-11.2
		c3.3-0.8,12.4-2.9,24-4.1c6.2-0.4,12.4-0.8,18.6-0.8c12,0,24,1.2,36,3.3c0.8,1.7,1.7,3.3,2.9,5c12,20.3,33.9,31.8,49.2,38
		c-13.2,2.1-26.1,11.2-38.5,20.3c-5.8,4.1-9.5,6.6-12,8.3C313.3,246.6,271.5,276,197.5,276z"/>
	<path class="st2" d="M275.7,174.2c11.6,0,23.2,1.2,34.7,3.3c0.8,1.7,1.7,2.9,2.5,4.1c10.8,18.6,29.4,29.8,44.3,36.4
		c-11.2,3.3-22.3,11.2-33.1,19c-4.1,2.9-7.9,5.8-12,8.3c-22.3,14.1-42.2,18.2-69.5,23.6c-12.4,2.5-28.1,5.4-45.5,5.4
		c-10.8,0-21.1-1.2-31-3.7c-34.7-8.3-60-29-76.1-46.7c19.9-3.3,39.3-7.4,57.9-13.2c17.8-5.4,29.8-9.1,45.9-15.7
		c3.3-1.7,6.6-2.9,9.9-4.5c9.5-4.1,17.4-8.3,30.2-11.2c3.3-0.8,12.4-2.9,24-4.1C263.3,174.2,269.5,174.2,275.7,174.2 M275.7,170.1
		c-7,0-13.6,0.4-18.6,0.8c-12.8,1.2-22.3,3.7-24.4,4.1c-17,4.1-26.1,9.5-40.5,15.7c-15.7,7-27.7,10.3-45.5,15.7
		c-15.7,4.5-37.6,10.3-64.9,14.1c12.8,15.3,40.1,43.8,83.1,53.8c11.2,2.5,21.9,3.7,32.3,3.7c17.8,0,33.1-2.9,46.3-5.4
		c27.3-5.4,48-9.5,70.7-24c17-10.8,36.4-28.5,54.6-28.5c2.5,0,5,0.4,7.4,1.2c0.8,0.4,4.5,1.2,5.4,1.2l0,0c0.4-0.8-46.3-9.9-65.8-43
		c-1.7-2.5-2.5-5-2.9-5.8C298.8,170.9,286.4,170.1,275.7,170.1L275.7,170.1z"/>
</g>
<path class="st3" d="M313.3,174.2c-14.9-2.9-38.5-6.2-65.8-2.1c-36.8,5.4-43.8,18.6-99.3,33.9c-33.5,9.5-50.5,14.5-72,14.9
	c-9.5,0-36.4-0.8-56.7,4.5C9.8,228.4,0.2,230,0.2,230s-1.7-73.6,7.9-98c3.3-8.7,9.1-60.8,56.7-86.9C94.1,29,165.7,22,201.2,29.5
	c35.2,7.4,79.8,25.2,91,61.6C303,127.5,313.3,174.2,313.3,174.2z"/>
<path class="st4" d="M123.1,29.9c3.7,0,7.9-0.4,12-0.8c4.5-0.4,9.1-1.2,13.2-1.7c-0.4-0.8-1.2-2.1-2.5-3.3c-0.4-0.4-1.7-1.7-3.3-2.5
	c-2.9-2.1-5.4-1.7-9.1-1.7c-3.7,0.4-5,1.2-5.4,1.2c-1.2,0.8-1.7,1.7-2.5,2.5C124.7,25.3,123.5,27,123.1,29.9z"/>
</svg>
