<?xml version="1.0" encoding="utf-8"?>
<!-- Generator: Adobe Illustrator 22.0.1, SVG Export Plug-In . SVG Version: 6.00 Build 0)  -->
<svg version="1.1" id="Layer_1" xmlns="http://www.w3.org/2000/svg" xmlns:xlink="http://www.w3.org/1999/xlink" x="0px" y="0px"
	 viewBox="0 0 96.6 62.4" style="enable-background:new 0 0 96.6 62.4;" xml:space="preserve">
<style type="text/css">
	.st0{fill:#575757;}
	.st1{fill:#323A44;stroke:#FFFFFF;stroke-miterlimit:10;}
	.st2{fill:#FFFFFF;stroke:#FFFFFF;stroke-miterlimit:10;}
	.st3{fill:#FFFFFF;}
	.st4{fill:#323A44;}
</style>
<g>
	<path class="st0" d="M93.5,56c-1.5,0-2.9-0.9-2.9-0.9c-0.7-0.4-1.7-0.9-3-1.7c-2.1-1.2-4.9-2.7-8.2-4.6c1.7-0.6,3.9-1.2,5.8-1.2
		c0.6,0,1.1,0.1,1.6,0.2c0.3,0.1,1.2,0.3,2.4,0.6l0.3,0.1c1.3,0.4,2.2,0.6,3.1,1.1c0.3,0.1,0.5,0.3,0.6,0.4c0.5,0.3,1,0.7,1.5,1.2
		c0.3,0.3,0.9,0.9,1.2,1.9c0.3,0.8,0.3,1.7-0.2,2.3c-0.2,0.2-0.4,0.3-0.7,0.4C94.5,55.9,94,56,93.5,56L93.5,56z"/>
	<path class="st0" d="M85.2,48.1L85.2,48.1c0.5,0,1,0,1.5,0.1c0.3,0.1,1.2,0.3,2.4,0.6l0.3,0.1c1.3,0.4,2.1,0.6,3,1.1
		c0.2,0.1,0.5,0.3,0.5,0.3l0,0l0,0c0.4,0.3,0.9,0.6,1.4,1.1c0.3,0.3,0.8,0.8,1.1,1.7v0.1l0,0c0.2,0.6,0.2,1.3-0.1,1.7
		c-0.1,0.1-0.2,0.2-0.4,0.2c-0.5,0.1-0.9,0.2-1.3,0.2h-0.1c-1.4,0-2.7-0.8-2.7-0.8c-0.7-0.4-1.7-0.9-3-1.7c-1.9-1.1-4.3-2.4-7.2-4.1
		C82,48.5,83.7,48.1,85.2,48.1 M85.2,47.1c-2.7,0-5.6,1-7,1.6c5.9,3.4,10.3,5.8,12.1,6.8c0,0,1.5,0.9,3.2,1h0.1c0.5,0,1-0.1,1.6-0.2
		c0.4-0.1,0.7-0.3,0.9-0.5c0.7-0.7,0.6-1.9,0.3-2.7V53c-0.4-1-1-1.7-1.3-2c-0.6-0.6-1.1-1-1.5-1.2c0,0-0.4-0.3-0.7-0.5
		c-1-0.5-2-0.8-3.5-1.2c-1.2-0.4-2.2-0.6-2.5-0.7C86.3,47.2,85.8,47.1,85.2,47.1L85.2,47.1z"/>
</g>
<g>
	<path class="st1" d="M47.7,61.9c-2.4,0-4.6-0.3-4.6-0.3c-1-0.1-2-0.3-3.1-0.6c-9-2.1-15.4-7.6-19.3-12.2c5.1-0.8,10.1-1.9,14.8-3.3
		c4.3-1.3,7.2-2.1,11-3.8c0.8-0.4,1.6-0.7,2.4-1.1c2.3-1.1,4.3-2,7.4-2.7c0.8-0.2,3-0.7,5.8-1c1.5-0.1,3-0.2,4.5-0.2
		c2.9,0,5.8,0.3,8.7,0.8c0.2,0.4,0.4,0.8,0.7,1.2c2.9,4.9,8.2,7.7,11.9,9.2c-3.2,0.5-6.3,2.7-9.3,4.9c-1.4,1-2.3,1.6-2.9,2
		C75.7,54.8,65.6,61.9,47.7,61.9z"/>
	<path class="st2" d="M66.6,37.3c2.8,0,5.6,0.3,8.4,0.8c0.2,0.4,0.4,0.7,0.6,1c2.6,4.5,7.1,7.2,10.7,8.8c-2.7,0.8-5.4,2.7-8,4.6
		c-1,0.7-1.9,1.4-2.9,2c-5.4,3.4-10.2,4.4-16.8,5.7c-3,0.6-6.8,1.3-11,1.3c-2.6,0-5.1-0.3-7.5-0.9c-8.4-2-14.5-7-18.4-11.3
		c4.8-0.8,9.5-1.8,14-3.2c4.3-1.3,7.2-2.2,11.1-3.8c0.8-0.4,1.6-0.7,2.4-1.1c2.3-1,4.2-2,7.3-2.7c0.8-0.2,3-0.7,5.8-1
		C63.6,37.3,65.1,37.3,66.6,37.3 M66.6,36.3c-1.7,0-3.3,0.1-4.5,0.2c-3.1,0.3-5.4,0.9-5.9,1c-4.1,1-6.3,2.3-9.8,3.8
		c-3.8,1.7-6.7,2.5-11,3.8c-3.8,1.1-9.1,2.5-15.7,3.4c3.1,3.7,9.7,10.6,20.1,13c2.7,0.6,5.3,0.9,7.8,0.9c4.3,0,8-0.7,11.2-1.3
		c6.6-1.3,11.6-2.3,17.1-5.8c4.1-2.6,8.8-6.9,13.2-6.9c0.6,0,1.2,0.1,1.8,0.3c0.2,0.1,1.1,0.3,1.3,0.3l0,0
		c0.1-0.2-11.2-2.4-15.9-10.4c-0.4-0.6-0.6-1.2-0.7-1.4C72.2,36.5,69.2,36.3,66.6,36.3L66.6,36.3z"/>
</g>
<path class="st3" d="M75.7,37.3c-3.6-0.7-9.3-1.5-15.9-0.5c-8.9,1.3-10.6,4.5-24,8.2c-8.1,2.3-12.2,3.5-17.4,3.6
	c-2.3,0-8.8-0.2-13.7,1.1C2.3,50.4,0,50.8,0,50.8S-0.4,33,1.9,27.1c0.8-2.1,2.2-14.7,13.7-21c7.1-3.9,24.4-5.6,33-3.8
	c8.5,1.8,19.3,6.1,22,14.9C73.2,26,75.7,37.3,75.7,37.3z"/>
<path class="st4" d="M29.7,2.4c0.9,0,1.9-0.1,2.9-0.2c1.1-0.1,2.2-0.3,3.2-0.4c-0.1-0.2-0.3-0.5-0.6-0.8c-0.1-0.1-0.4-0.4-0.8-0.6
	C33.7-0.1,33.1,0,32.2,0c-0.9,0.1-1.2,0.3-1.3,0.3c-0.3,0.2-0.4,0.4-0.6,0.6C30.1,1.3,29.8,1.7,29.7,2.4z"/>
</svg>
