<?xml version="1.0" encoding="utf-8"?>
<!-- Generator: Adobe Illustrator 22.0.1, SVG Export Plug-In . SVG Version: 6.00 Build 0)  -->
<svg version="1.1" id="Layer_1" xmlns="http://www.w3.org/2000/svg" xmlns:xlink="http://www.w3.org/1999/xlink" x="0px" y="0px"
	 viewBox="0 0 400 200" style="enable-background:new 0 0 400 200;" xml:space="preserve">
<style type="text/css">
	.st0{fill:none;stroke:#65C8D0;stroke-width:8;stroke-linecap:round;stroke-linejoin:round;stroke-miterlimit:10;}
	.st1{fill:#FFFFFF;}
	.st2{fill:#65C8D0;}
	
		.st3{opacity:5.000000e-02;fill:none;stroke:#630000;stroke-width:17;stroke-linecap:round;stroke-linejoin:bevel;stroke-miterlimit:10;enable-background:new    ;}
</style>
<path class="st0" d="M203.5,43.8c-0.4-1.8-2.2-8.1-8.4-12.7c-5.5-4.2-11.3-4.5-13.3-4.5"/>
<path class="st1" d="M329,160.4c0.3,5.2-52.3,15.3-105.5,16.8c-55.5,1.6-110.6-6.3-110.5-11.6c0.1-6.3,78.4-9.4,110.9-10.1
	C230.1,155.4,328.5,153.4,329,160.4z"/>
<path class="st2" d="M397.3,118.7c-0.4,4-4.9,14-13.6,19.4c-6.7,4.1-11.4,2.9-21.1,6.1c-11,3.7-16.7,9.4-21.8,12.9
	c-15,10.6-29.1,5.8-98.8,4.5c-20-0.4-27.3-0.1-30.2,0c-21.1,0.8-26.9,2.7-51.2,4.7c-27.6,2.3-41.4,3.5-51.8,1
	c-20-4.8-20.3-12.8-40.5-14.7c-12.6-1.2-19.7,1.2-34.4-3C18.1,145,12,138.1,10.3,136c-6-7.3-7.5-15.4-7.7-17.4
	C0.2,95.2,92.1,40,199.9,40C302.7,40.1,400,91.5,397.3,118.7z"/>
<path class="st3" d="M87.4,148.3c28.4-10.5,69-22.1,118.7-25c62.2-3.7,113,7.5,145.4,17.4"/>
</svg>
