<?xml version="1.0" encoding="utf-8"?>
<!-- Generator: Adobe Illustrator 22.0.1, SVG Export Plug-In . SVG Version: 6.00 Build 0)  -->
<svg version="1.1" id="Layer_1" xmlns="http://www.w3.org/2000/svg" xmlns:xlink="http://www.w3.org/1999/xlink" x="0px" y="0px"
	 viewBox="0 0 400 300" style="enable-background:new 0 0 400 300;" xml:space="preserve">
<style type="text/css">
	.st0{fill:#4D4D4D;}
	.st1{fill:#00D4A7;}
	.st2{fill:#FFFFFF;}
	.st3{fill:#BA9BC9;}
	.st4{fill:#4D4D4D;stroke:#4D4D4D;stroke-width:0.9438;stroke-linecap:round;stroke-linejoin:round;stroke-miterlimit:10;}
</style>
<g>
	<path class="st0" d="M259.5,290.9c-10.2,0-21.6-3-33.9-9.1c5.5-4,10.9-7.9,16.4-12c5.8-4.2,9.2-6.9,11.7-8.8c1.6-1.2,2.8-2.2,4-3
		c15.9-11.6,32.2-17.6,40.9-20.8c11.3-4.2,24.7-7.6,37.7-9.5c10.5-1.6,21.2-2.5,31.8-2.5c1.9,0,3.9,0,5.8,0.1
		c-8.2,5.9-16.8,11.5-25.6,16.7c-7.7,4.5-12.6,6.9-17.2,9.2c-2.9,1.4-5.9,2.9-9.6,4.9c-15.7,8.5-23.5,15.5-29.8,21
		c-5.9,5.3-10.2,9.1-18.2,11.6C269.2,290.1,264.5,290.9,259.5,290.9L259.5,290.9z"/>
	<path class="st0" d="M368.2,225.7c1.4,0,2.9,0,4.3,0c-7.8,5.7-16,10.9-24.3,15.9c-7.7,4.5-12.6,6.9-17.2,9.2
		c-2.9,1.4-5.9,2.9-9.6,4.9c-15.8,8.5-23.6,15.5-29.9,21.1c-5.9,5.2-10.2,9-18,11.5c-4.4,1.4-9.2,2.1-14,2.1c-9.9,0-21-2.9-32.9-8.7
		c5.2-3.8,10.5-7.6,15.8-11.5c5.8-4.2,9.2-6.9,11.7-8.8c1.6-1.2,2.8-2.2,4-3c15.9-11.6,32.1-17.6,40.8-20.7
		c11.3-4.2,24.6-7.5,37.6-9.5C346.9,226.6,357.6,225.7,368.2,225.7 M368.2,224.8c-9.2,0-19.9,0.6-31.9,2.5
		c-19.3,3-33.3,7.9-37.8,9.5c-9.1,3.3-25.1,9.2-41.1,20.9c-2.9,2.2-6.1,4.7-15.8,11.8c-7.2,5.4-13.1,9.6-17,12.5
		c14.3,7.1,25.7,9.4,34.7,9.4c5.6,0,10.4-0.9,14.3-2.2c16.6-5.3,17.6-16.1,48.1-32.7c9.4-5.1,14.1-6.6,26.8-14.1
		c11.6-6.8,20.7-13.1,26.7-17.6C373.1,224.8,370.7,224.8,368.2,224.8L368.2,224.8z"/>
</g>
<g>
	<path class="st1" d="M375.3,225.8c-1.8,5.9-22-1-53.4,5.1c-9.4,1.8-38.4,7.5-64.5,27.7c-8.6,6.7-16.3,14.4-32.7,24.3
		c0,0-11.4,6.8-21.4,11.1c-47,20.1-122.9-19.8-129.8-24.1c-24.1-14.8-49-32.1-49-44.3s33.8-20.8,42.4-42.8
		c2.5-6.4,4.4-14.4,4.4-14.4c0.9-4.1,1.7-11.6,3.4-26.7c4.3-39.1,3.6-44.3,5.2-53c7.2-39.4,46.2-64.1,52.2-68
		C139.5,16,180.6-10,229.1,5c40.1,12.5,59.6,45,63.5,51.6c9.7,16.2,14.3,33.5,15.8,39c2.6,10.4,2.8,15.3,7.9,47.4
		c2.7,17.1,4,25.7,4.6,27.5C332.8,206.7,378,217.2,375.3,225.8z"/>
</g>
<path class="st2" d="M320.8,170.4c-0.8-4.2-1.5-8.4-2.3-12.6c-1.2-7.1-2.3-14.1-3.3-20.9c-80,0.9-160.1,1.9-240,2.8
	c-0.9,4.4-1.8,9.2-2.5,14.2c-0.8,5.9-1.5,11.3-1.9,16.6C154.1,170.4,237.5,170.4,320.8,170.4z"/>
<path class="st3" d="M370.7,43.5"/>
<path class="st4" d="M29.6,134"/>
</svg>
