<?xml version="1.0" encoding="utf-8"?>
<!-- Generator: Adobe Illustrator 22.0.1, SVG Export Plug-In . SVG Version: 6.00 Build 0)  -->
<svg version="1.1" id="Layer_1" xmlns="http://www.w3.org/2000/svg" xmlns:xlink="http://www.w3.org/1999/xlink" x="0px" y="0px"
	 viewBox="0 0 400 300" style="enable-background:new 0 0 400 300;" xml:space="preserve">
<style type="text/css">
	.st0{fill:#4D4D4D;}
	.st1{fill:#FCCDEC;}
	.st2{fill:#BA9BC9;}
	.st3{fill:#4D4D4D;stroke:#4D4D4D;stroke-width:0.9462;stroke-linecap:round;stroke-linejoin:round;stroke-miterlimit:10;}
</style>
<g>
	<path class="st0" d="M259.7,291.2c-10.2,0-21.7-3-34-9.1c5.5-4,11-7.9,16.5-12c5.8-4.3,9.3-6.9,11.7-8.8c1.6-1.2,2.8-2.2,4-3
		c15.9-11.6,32.3-17.6,41-20.8c11.4-4.2,24.8-7.6,37.8-9.6c10.5-1.6,21.3-2.5,31.9-2.5c1.9,0,3.9,0,5.8,0.1
		c-8.2,6-16.8,11.5-25.6,16.7c-7.8,4.5-12.6,6.9-17.2,9.2c-2.9,1.4-6,2.9-9.7,4.9c-15.7,8.5-23.6,15.5-29.9,21.1
		c-6,5.3-10.2,9.1-18.3,11.6C269.4,290.5,264.6,291.2,259.7,291.2L259.7,291.2z"/>
	<path class="st0" d="M368.6,225.9c1.4,0,2.9,0,4.4,0c-7.9,5.7-16.1,11-24.4,15.9c-7.8,4.5-12.6,6.9-17.2,9.2
		c-2.9,1.4-6,2.9-9.7,4.9c-15.8,8.5-23.7,15.5-30,21.2c-5.9,5.2-10.2,9-18.1,11.5c-4.4,1.4-9.2,2.1-14,2.1c-9.9,0-21.1-2.9-33-8.7
		c5.2-3.8,10.5-7.7,15.8-11.5c5.8-4.3,9.3-6.9,11.7-8.8c1.6-1.2,2.8-2.2,4-3C274,247,290.3,241.1,299,238
		c11.4-4.2,24.7-7.5,37.7-9.6C347.3,226.8,358,225.9,368.6,225.9 M368.6,225c-9.2,0-20,0.6-32,2.5c-19.3,3-33.4,7.9-37.8,9.6
		c-9.1,3.3-25.2,9.2-41.2,20.9c-2.9,2.2-6.2,4.7-15.8,11.8c-7.2,5.4-13.2,9.7-17,12.5c14.3,7.1,25.7,9.5,34.8,9.5
		c5.6,0,10.4-0.9,14.3-2.2c16.7-5.3,17.7-16.2,48.3-32.7c9.5-5.1,14.1-6.6,26.9-14.1c11.6-6.8,20.7-13.2,26.8-17.6
		C373.5,225,371.2,225,368.6,225L368.6,225z"/>
</g>
<g>
	<path class="st1" d="M375.8,226c-1.8,6-22-1-53.6,5.1c-9.5,1.8-38.5,7.5-64.6,27.7c-8.6,6.7-16.4,14.5-32.8,24.3
		c0,0-11.4,6.8-21.5,11.2c-47.1,20.2-123.2-19.9-130.1-24.1c-24.1-14.9-49.1-32.2-49.1-44.4S58,205,66.6,183
		c2.6-6.4,4.4-14.5,4.4-14.5c0.9-4.1,1.7-11.6,3.4-26.8c4.4-39.2,3.6-44.4,5.2-53.2c7.2-39.5,46.3-64.3,52.3-68.1
		c7.4-4.7,48.6-30.8,97.2-15.8c40.2,12.5,59.8,45.1,63.7,51.8c9.7,16.3,14.4,33.6,15.8,39.1c2.6,10.4,2.8,15.3,7.9,47.5
		c2.7,17.1,4,25.7,4.6,27.5C333.1,206.8,378.5,217.3,375.8,226z"/>
</g>
<path d="M321.1,170.5c-0.8-4.2-1.5-8.4-2.3-12.7c-1.2-7.1-2.3-14.1-3.3-20.9c-80.2,0.9-160.5,1.9-240.6,2.8
	c-0.9,4.4-1.8,9.2-2.6,14.2c-0.9,5.9-1.5,11.4-1.9,16.7C154,170.5,237.6,170.5,321.1,170.5z"/>
<path class="st2" d="M371.2,43.2"/>
<path class="st3" d="M29.2,134"/>
</svg>
