<?xml version="1.0" encoding="utf-8"?>
<!-- Generator: Adobe Illustrator 22.0.1, SVG Export Plug-In . SVG Version: 6.00 Build 0)  -->
<svg version="1.1" id="Layer_1" xmlns="http://www.w3.org/2000/svg" xmlns:xlink="http://www.w3.org/1999/xlink" x="0px" y="0px"
	 viewBox="0 0 372 372" style="enable-background:new 0 0 372 372;" xml:space="preserve">
<style type="text/css">
	.st0{fill:#4D4D4D;}
	.st1{fill:#FCCDEC;}
	.st2{fill:#BA9BC9;}
	.st3{fill:#4D4D4D;stroke:#4D4D4D;stroke-linecap:round;stroke-linejoin:round;stroke-miterlimit:10;}
</style>
<g>
	<path class="st0" d="M249.1,335.3c-10.8,0-22.9-3.2-35.9-9.6c5.8-4.2,11.6-8.4,17.4-12.7c6.1-4.5,9.8-7.3,12.4-9.3
		c1.7-1.3,3-2.3,4.2-3.2c16.8-12.3,34.1-18.6,43.3-22c12-4.4,26.2-8,39.9-10.1c11.1-1.7,22.5-2.6,33.7-2.6c2,0,4.1,0,6.1,0.1
		c-8.7,6.3-17.8,12.2-27.1,17.7c-8.2,4.8-13.3,7.3-18.2,9.7c-3.1,1.5-6.3,3.1-10.2,5.2c-16.6,9-24.9,16.4-31.6,22.3
		c-6.3,5.6-10.8,9.6-19.3,12.3C259.3,334.5,254.3,335.3,249.1,335.3C249.1,335.3,249.1,335.3,249.1,335.3z"/>
	<path class="st0" d="M364.2,266.3c1.5,0,3.1,0,4.6,0c-8.3,6-17,11.6-25.8,16.8c-8.2,4.8-13.3,7.3-18.2,9.7
		c-3.1,1.5-6.3,3.1-10.2,5.2c-16.7,9-25,16.4-31.7,22.4c-6.2,5.5-10.8,9.5-19.1,12.2c-4.7,1.5-9.7,2.2-14.8,2.2
		c-10.5,0-22.3-3.1-34.9-9.2c5.5-4,11.1-8.1,16.7-12.2c6.1-4.5,9.8-7.3,12.4-9.3c1.7-1.3,3-2.3,4.2-3.2c16.8-12.3,34-18.6,43.2-21.9
		c12-4.4,26.1-7.9,39.8-10.1C341.7,267.2,353,266.3,364.2,266.3 M364.2,265.3c-9.7,0-21.1,0.6-33.8,2.6c-20.4,3.2-35.3,8.4-40,10.1
		c-9.6,3.5-26.6,9.7-43.5,22.1c-3.1,2.3-6.5,5-16.7,12.5c-7.6,5.7-13.9,10.2-18,13.2c15.1,7.5,27.2,10,36.8,10c5.9,0,11-1,15.1-2.3
		c17.6-5.6,18.7-17.1,51-34.6c10-5.4,14.9-7,28.4-14.9c12.3-7.2,21.9-13.9,28.3-18.6C369.4,265.3,366.9,265.3,364.2,265.3
		L364.2,265.3z"/>
</g>
<g>
	<path class="st1" d="M371.8,266.4c-1.9,6.3-23.3-1.1-56.6,5.4c-10,1.9-40.7,7.9-68.3,29.3c-9.1,7.1-17.3,15.3-34.7,25.7
		c0,0-12.1,7.2-22.7,11.8c-49.8,21.3-130.2-21-137.5-25.5c-25.5-15.7-51.9-34-51.9-46.9s35.8-22,44.9-45.3
		c2.7-6.8,4.7-15.3,4.7-15.3c1-4.3,1.8-12.3,3.6-28.3c4.6-41.4,3.8-46.9,5.5-56.2c7.6-41.7,48.9-67.9,55.3-72
		c7.8-5,51.4-32.6,102.7-16.7c42.5,13.2,63.2,47.7,67.3,54.7c10.3,17.2,15.2,35.5,16.7,41.3c2.8,11,3,16.2,8.4,50.2
		c2.9,18.1,4.2,27.2,4.9,29.1C326.7,246.1,374.6,257.2,371.8,266.4z"/>
</g>
<path d="M314,207.7c-0.8-4.4-1.6-8.9-2.4-13.4c-1.3-7.5-2.4-14.9-3.5-22.1c-84.8,1-169.6,2-254.3,3c-1,4.7-1.9,9.7-2.7,15
	c-0.9,6.2-1.6,12-2,17.6C137.4,207.7,225.7,207.7,314,207.7z"/>
<path class="st2" d="M366.9,73.2"/>
<path class="st3" d="M5.5,169.1"/>
</svg>
