<?xml version="1.0" encoding="utf-8"?>
<!-- Generator: Adobe Illustrator 22.0.1, SVG Export Plug-In . SVG Version: 6.00 Build 0)  -->
<svg version="1.1" id="Layer_1" xmlns="http://www.w3.org/2000/svg" xmlns:xlink="http://www.w3.org/1999/xlink" x="0px" y="0px"
	 viewBox="0 0 100.9 58.8" style="enable-background:new 0 0 100.9 58.8;" xml:space="preserve">
<style type="text/css">
	.st0{fill:#FFFFFF;}
	.st1{opacity:0.8;fill:#FFFFFF;stroke:#636361;stroke-width:0.75;stroke-miterlimit:10;}
</style>
<path class="st0" d="M88.9,40.6C85.9,18.9,79,3.7,73.7,1.5C70.4,0.2,67.2,0,67.2,0c-2.6-0.1-4.6,0.4-7.8,1.2c-5.6,1.4-6,2.4-8.7,2.6
	c-2,0.1-4.9-0.1-8.8-2.3c-1.5-0.6-4-1.4-7.2-1.3c0,0-4.5,0.2-9.2,3.3c-6,3.9-11.8,18-13,37.1H88.9z"/>
<path class="st1" d="M1.1,57c-0.6,0.3-0.6,0.6-0.6,0.6c0,0.3,0.3,0.6,0.6,0.6c23.1,0.5,67.4,0.6,92-6.4c5-1.4,7.1-4.2,7.3-6.9
	c0.3-2.9-4-5.4-6.9-6.3C85.7,36,79.2,42.8,70.6,47C47.9,58.3,2.8,56.1,1.1,57z"/>
<g>
	<path class="st0" d="M72.3,43.5c-20,0.4-40.1,0.8-60.1,1.1c0,1.7,0,3.4,0,5.2c0,2-0.1,4-0.3,5.8c2.1,0,4.8-0.1,7.9-0.3
		c1.4-0.1,5.8-0.4,11.8-1.1c2.8-0.3,1.6-0.2,12.6-1.8c3.6-0.5,6.3-0.9,10.1-1.6c2-0.4,4.2-0.8,6.9-1.6c1.8-0.5,3.2-1.1,6-2.1
		c0.8-0.3,1.8-0.7,2.9-1.5C71.2,44.8,71.9,44.1,72.3,43.5z"/>
	<path class="st0" d="M-34.6,57.8"/>
</g>
<path d="M8.2,25"/>
</svg>
