<?xml version="1.0" encoding="utf-8"?>
<!-- Generator: Adobe Illustrator 22.0.1, SVG Export Plug-In . SVG Version: 6.00 Build 0)  -->
<svg version="1.1" id="Layer_1" xmlns="http://www.w3.org/2000/svg" xmlns:xlink="http://www.w3.org/1999/xlink" x="0px" y="0px"
	 viewBox="0 0 400 236" style="enable-background:new 0 0 400 236;" xml:space="preserve">
<style type="text/css">
	.st0{fill:#FFFFFF;}
</style>
<path class="st0" d="M349.2,161.5C344.5,87,321.9,32,298.5,16.6C280.2,4.5,262.6,3.7,262.6,3.7c-12.5-0.4-22.2,2.8-28.1,5.1
	c-15.2,8.6-26.5,9.4-34.3,9c-10.6-0.7-12.1-4.6-34-10.1c-12.4-3.1-20.3-5.1-30.4-4.7c0,0-12.5,0.8-25.4,5.9
	c-20.7,8.6-47.6,67.9-59.3,152.6H349.2z"/>
<path class="st0" d="M122.5,186.4c-33.6-16.4-59-42.9-89.4-32.8C21.8,157.1,5,166.9,6.2,178.2c0.8,10.5,9,21.4,28.5,26.9
	c96,27.3,268.9,27,359,25c1.1,0,2.3-1.1,2.3-2.3c0,0,0-1.1-2.3-2.3C387.1,222,211.1,230.6,122.5,186.4z"/>
<path class="st0" d="M366,100.6"/>
<path class="st0" d="M106.3,171.6c3.5,2.3,8.4,5.3,14.5,8.4c6.5,3.4,11.5,5.3,18.3,8c9.6,3.8,17.7,6.4,23.1,8.1
	c6.2,1.9,15.6,4.6,27.4,7.3c10.7,2.4,18.7,3.7,27.2,5.1c7,1.1,17.2,2.6,32.8,4.4c25.6,2.9,45.5,4.2,60.6,5.1
	c10.5,0.7,24.3,1.4,40.6,2c-0.2-14.1-0.3-28.3-0.4-42.4C269,175.6,187.6,173.6,106.3,171.6z"/>
</svg>
