<?xml version="1.0" encoding="utf-8"?>
<!-- Generator: Adobe Illustrator 22.0.1, SVG Export Plug-In . SVG Version: 6.00 Build 0)  -->
<svg version="1.1" id="Layer_1" xmlns="http://www.w3.org/2000/svg" xmlns:xlink="http://www.w3.org/1999/xlink" x="0px" y="0px"
	 viewBox="0 0 400 236" style="enable-background:new 0 0 400 236;" xml:space="preserve">
<style type="text/css">
	.st0{enable-background:new    ;}
</style>
<path d="M349.1,161.5C344.4,87,321.8,32,298.4,16.7C280.1,4.6,262.5,3.9,262.5,3.9c-12.5-0.4-22.2,2.7-28.1,5.1
	c-15.2,8.6-26.5,9.4-34.3,9c-10.5-0.8-12.1-4.7-34-10.1c-12.5-3.1-20.3-5.1-30.4-4.7c0,0-12.5,0.8-25.4,5.9
	C89.6,17.5,62.7,76.8,51,161.5H349.1z"/>
<path class="st0" d="M122.4,186.5c-33.6-16.4-58.9-42.9-89.4-32.8C21.7,157.2,4.9,167,6.1,178.3c0.8,10.5,9,21.5,28.5,26.9
	c96,27.3,268.9,26.9,359,25c1.2,0,2.3-1.2,2.3-2.3c0,0,0-1.2-2.3-2.3C387,222,211,230.6,122.4,186.5z"/>
<path d="M365.9,100.6"/>
<path d="M350.3,177.6c0.1,14.1,0.2,28.3,0.4,42.4c-16.3-0.6-30.1-1.3-40.6-2c-15.1-0.9-35-2.2-60.6-5.1c-15.6-1.8-25.8-3.3-32.8-4.4
	c-8.5-1.4-16.5-2.7-27.2-5.1c-11.8-2.7-21.2-5.4-27.4-7.3c-5.4-1.7-13.5-4.3-23.1-8.1c-6.8-2.7-11.8-4.6-18.3-8
	c-6.1-3.1-11-6.1-14.5-8.4C187.5,173.6,268.9,175.6,350.3,177.6z"/>
</svg>
