<?xml version="1.0" encoding="utf-8"?>
<!-- Generator: Adobe Illustrator 22.0.1, SVG Export Plug-In . SVG Version: 6.00 Build 0)  -->
<svg version="1.1" id="Layer_1" xmlns="http://www.w3.org/2000/svg" xmlns:xlink="http://www.w3.org/1999/xlink" x="0px" y="0px"
	 viewBox="0 0 400 300" style="enable-background:new 0 0 400 300;" xml:space="preserve">
<style type="text/css">
	.st0{stroke:#000000;stroke-miterlimit:10;}
	.st1{fill:#FFFF00;stroke:#000000;stroke-miterlimit:10;}
</style>
<circle class="st0" cx="254.4" cy="162.9" r="10"/>
<ellipse transform="matrix(0.8459 -0.5333 0.5333 0.8459 -38.4707 150.4173)" class="st1" cx="241.1" cy="141.8" rx="5.5" ry="17.3"/>
<ellipse class="st1" cx="255" cy="138.5" rx="5.5" ry="17.3"/>
<ellipse transform="matrix(0.5 -0.866 0.866 0.5 11.5393 303.049)" class="st1" cx="268.2" cy="141.5" rx="17.3" ry="5.5"/>
<ellipse transform="matrix(0.866 -0.5 0.5 0.866 -38.359 158.8183)" class="st1" cx="277.2" cy="151" rx="17.3" ry="5.5"/>
<ellipse transform="matrix(0.5 -0.866 0.866 0.5 -13.8844 275.7217)" class="st1" cx="231.8" cy="149.9" rx="5.5" ry="17.3"/>
<ellipse transform="matrix(0.1418 -0.9899 0.9899 0.1418 37.4588 366.0962)" class="st1" cx="229.9" cy="161.4" rx="5.5" ry="17.3"/>
<ellipse transform="matrix(0.9419 -0.3359 0.3359 0.9419 -45.1034 88.0235)" class="st1" cx="231.9" cy="174.4" rx="17.3" ry="5.5"/>
<ellipse transform="matrix(0.4799 -0.8773 0.8773 0.4799 -36.2214 309.5317)" class="st1" cx="243" cy="185.3" rx="17.3" ry="5.5"/>
<ellipse class="st1" cx="254.4" cy="187.6" rx="5.5" ry="17.3"/>
<ellipse transform="matrix(0.8926 -0.4509 0.4509 0.8926 -54.5319 139.4592)" class="st1" cx="265.4" cy="184.2" rx="5.5" ry="17.3"/>
<ellipse transform="matrix(0.5994 -0.8004 0.8004 0.5994 -30.9293 290.5123)" class="st1" cx="274.8" cy="176.2" rx="5.5" ry="17.3"/>
<ellipse transform="matrix(0.1189 -0.9929 0.9929 0.1189 82.6638 422.8615)" class="st1" cx="279.6" cy="164.9" rx="5.5" ry="17.3"/>
</svg>
