<?xml version="1.0" encoding="utf-8"?>
<!-- Generator: Adobe Illustrator 22.0.1, SVG Export Plug-In . SVG Version: 6.00 Build 0)  -->
<svg version="1.1" id="Layer_1" xmlns="http://www.w3.org/2000/svg" xmlns:xlink="http://www.w3.org/1999/xlink" x="0px" y="0px"
	 viewBox="0 0 400 300" style="enable-background:new 0 0 400 300;" xml:space="preserve">
<style type="text/css">
	.st0{fill:#FFFFFF;}
</style>
<path class="st0" d="M243,147.3v-15.7h-7v9.4c-9.5,0-18.9,0-28.4,0v-38.4h5v-6h-15.7v6.2l4.3,0.1V141h-4.3v7
	C212.2,147.7,227.6,147.5,243,147.3z"/>
<g>
	<g>
		<path class="st0" d="M217,112.2c-5.7,17.6-11.3,35.2-17,52.8c-0.9,0-1.8,0.1-2.7,0.1c0,1.5,0,2.9,0,4.4c3.5,0,7.1,0,10.6,0
			c0-1.5,0-2.9,0-4.4c-0.8,0-1.7,0-2.5,0c5.2-15.7,10.4-31.4,15.6-47.1c0.3,0,0.7,0,1,0c5.3,15.7,10.6,31.4,15.9,47.1h-2.5v4.4H246
			v-4.4c-0.7,0-1.3-0.1-2-0.1c-5.9-17.6-11.8-35.2-17.7-52.8H217z"/>
	</g>
</g>
<path class="st0" d="M252.5,153.9"/>
<path class="st0" d="M232.8,109.7"/>
</svg>
