<?xml version="1.0" encoding="utf-8"?>
<!-- Generator: Adobe Illustrator 22.0.1, SVG Export Plug-In . SVG Version: 6.00 Build 0)  -->
<svg version="1.1" id="Layer_1" xmlns="http://www.w3.org/2000/svg" xmlns:xlink="http://www.w3.org/1999/xlink" x="0px" y="0px"
	 viewBox="0 0 584.40002 584.40002" style="enable-background:new 0 0 584.40002 584.40002;" xml:space="preserve">
<style type="text/css">
	.st0{fill:#323A45;}
	.st1{fill:none;stroke:#FFFFFF;stroke-width:13;stroke-linecap:round;stroke-linejoin:bevel;stroke-miterlimit:10;}
	.st2{fill:none;stroke:#FFFFFF;stroke-width:13;stroke-linecap:round;stroke-linejoin:round;stroke-miterlimit:10;}
	.st3{fill:#FFFFFF;}
	.st4{fill:#323A45;stroke:#FFFFFF;stroke-width:13;stroke-linecap:round;stroke-linejoin:round;stroke-miterlimit:10;}
</style>
<circle class="st0" cx="292.20001" cy="292.20001" r="286"/>
<path class="st1" d="M373.39999,198.2c15.70001-18.3,31.5-36.59999,47.20001-54.8"/>
<line class="st1" x1="310.20001" y1="389.10001" x2="338.29999" y2="550.70001"/>
<line class="st1" x1="284" y1="155" x2="264.10001" y2="58.6"/>
<path class="st2" d="M409.79999,325.29999c21.89999,4.70001,43.70001,9.29999,65.60001,14"/>
<line class="st1" x1="203.39999" y1="337.89999" x2="131.10001" y2="398.39999"/>
<line class="st1" x1="177.89999" y1="246.3" x2="58.7" y2="208.5"/>
<path class="st3" d="M394.5,212.5c1.20001,2.3,2.5,4.7,3.89999,7.3s2.70001,5.39999,3.89999,8.5L213.2,329
	c6.39999,11.20001,14.39999,20.70001,23.89999,28.5c9.60001,7.79999,20.09999,13.5,31.59999,17s23.39999,4.79999,35.79999,3.79999
	s24.5-4.60001,36.20001-10.79999c17.20001-9.20001,30-21,38.20001-35.70001c8.29999-14.60001,12.89999-28.79999,13.89999-42.70001
	L428,295.39996c-4.5,24.5-12.89999,44.79999-25.39999,61c-12.39999,16.20001-28.10001,29.29999-46.89999,39.39999
	c-16.89999,9-34.20001,14.29999-51.79999,16c-17.70001,1.70001-34.5-0.10001-50.60001-5.29999
	c-16.10001-5.20001-31.10001-13.5-44.8-24.89999c-13.8-11.39999-25.3-25.70001-34.40001-43
	c-9.2-17.20001-14.7-34.70001-16.60001-52.39999c-1.89999-17.70001-0.60001-34.7,4.10001-51
	c4.7-16.3,12.39999-31.10001,23.2-44.60001c10.8-13.39999,24.3-24.5,40.5-33.10001c17.89999-9.5,35.2-14.89999,52.09999-16.10001
	c16.79999-1.2,32.5,0.8,47.10001,6.2c14.5,5.39999,27.79999,13.7,39.79999,24.8C376,183.5,386.20001,196.89999,394.5,212.5z
	 M355.10001,219.7c-12.39999-20.89999-28.79999-35-49.10001-42.3c-20.39999-7.3-42.39999-4.60001-66.10001,8
	c-11.10001,5.89999-20.2,13.39999-27.5,22.39999c-7.3,9.10001-12.60001,19-16,29.8s-4.89999,21.8-4.3,32.99998
	c0.5,11.20001,3.10001,21.79999,7.60001,31.89999L355.10001,219.7z"/>
<circle class="st4" cx="264.29999" cy="50.5" r="27.5"/>
<circle class="st4" cx="67.9" cy="206.2" r="27.5"/>
<circle class="st4" cx="128.7" cy="396.29999" r="27.5"/>
<circle class="st4" cx="337.20001" cy="533.90002" r="27.5"/>
<circle class="st4" cx="483.20001" cy="335.79999" r="27.5"/>
<circle class="st4" cx="423.10001" cy="136.10001" r="27.5"/>
</svg>
